<svg width="28" height="27" viewBox="0 0 28 27" fill="none" xmlns="http://www.w3.org/2000/svg">
<ellipse cx="7.69212" cy="1.96268" rx="0.75657" ry="0.736122" fill="#755BE3"/>
<ellipse cx="1.76634" cy="7.73026" rx="0.75657" ry="0.736122" fill="#755BE3"/>
<ellipse cx="19.5447" cy="1.96268" rx="0.75657" ry="0.736122" fill="#755BE3"/>
<ellipse cx="25.4714" cy="7.73026" rx="0.75657" ry="0.736122" fill="#755BE3"/>
<ellipse cx="25.4714" cy="19.3826" rx="0.75657" ry="0.736122" fill="#755BE3"/>
<ellipse cx="26.4802" cy="13.617" rx="0.75657" ry="0.736122" fill="#755BE3"/>
<ellipse cx="19.5447" cy="25.1502" rx="0.75657" ry="0.736122" fill="#755BE3"/>
<ellipse cx="7.69212" cy="25.1502" rx="0.75657" ry="0.736122" fill="#755BE3"/>
<ellipse cx="1.76634" cy="19.3826" rx="0.75657" ry="0.736122" fill="#755BE3"/>
<ellipse cx="0.75657" cy="13.617" rx="0.75657" ry="0.736122" fill="#755BE3"/>
<path d="M13.6181 12.6367L13.8464 13.3961L14.6269 13.6182L13.8464 13.8403L13.6181 14.5997L13.3899 13.8403L12.6094 13.6182L13.3899 13.3961L13.6181 12.6367Z" fill="#755BE3"/>
<ellipse cx="13.6178" cy="1.59493" rx="1.63923" ry="1.59493" fill="#755BE3"/>
<ellipse cx="19.5445" cy="7.72774" rx="1.63923" ry="1.59493" fill="#755BE3"/>
<ellipse cx="19.5445" cy="13.3723" rx="1.63923" ry="1.59493" fill="#755BE3"/>
<ellipse cx="19.5445" cy="19.3859" rx="1.63923" ry="1.59493" fill="#755BE3"/>
<ellipse cx="13.6178" cy="25.1516" rx="1.63923" ry="1.59493" fill="#755BE3"/>
<ellipse cx="7.56599" cy="19.507" rx="1.63923" ry="1.59493" fill="#755BE3"/>
<ellipse cx="7.56599" cy="7.72774" rx="1.63923" ry="1.59493" fill="#755BE3"/>
<path d="M13.6191 5.0293C15.151 5.02947 16.3925 6.23804 16.3926 7.72852C16.3926 9.21909 15.1511 10.4276 13.6191 10.4277C12.8886 10.4277 12.0987 10.5123 11.582 11.0287L10.9021 11.708C10.4171 12.1926 10.3398 12.9345 10.3398 13.6201C10.3398 14.3111 10.4154 15.0596 10.9042 15.548L11.4114 16.0548C11.9691 16.612 12.8308 16.6865 13.6191 16.6865C15.1511 16.6867 16.3926 17.8952 16.3926 19.3857C16.3924 20.8762 15.151 22.0848 13.6191 22.085C12.0872 22.085 10.8449 20.8763 10.8447 19.3857C10.8447 18.594 10.7895 17.7187 10.2293 17.1593L10.0589 16.9892C9.43357 16.3646 8.45022 16.3192 7.56641 16.3193C6.03444 16.3193 4.79218 15.1106 4.79199 13.6201C4.79199 12.1294 6.03432 10.9209 7.56641 10.9209C8.45585 10.921 9.44691 10.8763 10.0758 10.2474L10.2125 10.1107C10.8091 9.5141 10.8447 8.57229 10.8447 7.72852C10.8448 6.23793 12.0871 5.0293 13.6191 5.0293Z" fill="#755BE3"/>
</svg>
